<?xml version="1.0" encoding="UTF-8"?>
<svg id="Layer_1" data-name="Layer 1" xmlns="http://www.w3.org/2000/svg" viewBox="0 0 526.03 387.91">
  <defs>
    <style>
      .cls-1 {
        fill: #fff;
      }
    </style>
  </defs>
  <rect class="cls-1" x="70.13" y="281.69" width="16.2" height="14.87"/>
  <rect class="cls-1" x="70.13" y="299.56" width="16.2" height="16.31"/>
  <path class="cls-1" d="M106.95,174.09v88.1h-3v-88.1h-33.81v-1.69h-.01v106.29h19.2v37.18h49.6v-107.3h3v70.12h32.15v-104.6H106.95Z"/>
  <polygon class="cls-1" points="209.06 174.09 209.06 315.87 141.93 315.87 141.93 281.69 177.08 281.69 177.08 174.09 209.06 174.09"/>
  <rect class="cls-1" x="282.78" y="192.09" width="14.7" height="14.98"/>
  <rect class="cls-1" x="300.48" y="192.09" width="14.28" height="14.98"/>
  <path class="cls-1" d="M247.46,174.09v106.1h-3v-106.1h-32.4v141.78h67.72v-126.78h37.98v17.98h32.32v-32.98h-102.62Zm175.75,0v141.78h33.47V174.09h-33.47Zm-35.15,0v70.47h-3v-70.47h-31.98v104.6h34.98v37.18h32.15V174.09h-32.15Zm-3,122.47v-14.87h-31.98v34.18h31.98v-16.31h-15.82v-3h15.82Zm-49.6,3v16.31h14.62v-16.31h-14.62Zm-17.7-89.49v70.12h-3v-70.12h-31.98v105.8h49.68v-19.31h17.62v-86.49h-32.32Z"/>
  <path class="cls-1" d="M353.08,65.1v17.91h-3v-17.91h-49.6v17.91h-3v-17.91h-50.02v17.74h-3v-17.74h-32.4v34.38h173v-34.38h-31.98Zm-70.3,90.99v15h14.7v-15h-14.7Zm140.43-90.99v105.99h33.47V65.1h-33.47Zm-140.43,90.99v15h14.7v-15h-14.7Zm0,0v15h14.7v-15h-14.7Zm0,0v15h14.7v-15h-14.7Zm0,0v15h14.7v-15h-14.7Zm0,0v15h14.7v-15h-14.7Zm0,0v15h14.7v-15h-14.7Zm0,0v15h14.7v-15h-14.7Zm68.8-35.87h-17.62v-3h17.62v3Zm-68.8,35.87v15h14.7v-15h-14.7Zm0,0v15h14.7v-15h-14.7Zm0,0v15h14.7v-15h-14.7Zm0,0v15h14.7v-15h-14.7Zm0,0v15h14.7v-15h-14.7Zm0,0v15h14.7v-15h-14.7Zm0,0v15h14.7v-15h-14.7Zm0,0v15h14.7v-15h-14.7Zm0,0v15h14.7v-15h-14.7Zm105.28-90.99v71.69h-3v-34.31h-84.58v32.74h51.1v3h-54.1v-35.74h-85.42v32.74h51.6v3h-54.6V65.1h-31.98v71.62h-3v-34.24h-32.15v68.61h137.85v-18h20.7v18h119.73V65.1h-32.15Zm-281.11,0v71.62h-3V65.1h-33.81v105.99h68.79V99.48h35.15v-34.38H106.95Z"/>
</svg>